<svg xmlns="http://www.w3.org/2000/svg" xmlns:xlink="http://www.w3.org/1999/xlink" width="40" height="40" viewBox="0 0 40 40">
  <defs>
    <clipPath id="clip-Rank">
      <rect width="40" height="40"/>
    </clipPath>
  </defs>
  <g id="Rank" clip-path="url(#clip-Rank)">
    <rect width="40" height="40" fill="rgba(255,255,255,0)"/>
    <path id="workspace_premium_FILL0_wght400_GRAD0_opsz48" d="M16.594,21.876l1.375-4.393-3.629-2.827h4.431l1.452-4.546,1.413,4.546h4.469l-3.629,2.827,1.337,4.393-3.591-2.712Zm-5.386,14.21V24.474A10.809,10.809,0,0,1,8.745,20.54,13.046,13.046,0,0,1,8,16.223,12.005,12.005,0,0,1,20.223,4,12.005,12.005,0,0,1,32.446,16.223,13.046,13.046,0,0,1,31.7,20.54a10.809,10.809,0,0,1-2.464,3.934V36.086l-9.015-3.018Zm9.015-9.931a9.848,9.848,0,0,0,9.931-9.931,9.848,9.848,0,0,0-9.931-9.931,9.848,9.848,0,0,0-9.931,9.931,9.848,9.848,0,0,0,9.931,9.931ZM13.5,32.877l6.723-2.1,6.723,2.1V26.346a10.365,10.365,0,0,1-3.285,1.6,12.148,12.148,0,0,1-6.876,0,10.365,10.365,0,0,1-3.285-1.6ZM20.223,29.592Z" transform="translate(-0.223 -0.043)"/>
  </g>
</svg>
