<?xml version="1.0" encoding="utf-8"?>
<!-- Generator: Adobe Illustrator 25.2.1, SVG Export Plug-In . SVG Version: 6.00 Build 0)  -->
<svg version="1.1" id="图层_1" xmlns="http://www.w3.org/2000/svg" xmlns:xlink="http://www.w3.org/1999/xlink" x="0px" y="0px"
	 viewBox="0 0 40 40" style="enable-background:new 0 0 40 40;" xml:space="preserve">
<style type="text/css">
	.st0{clip-path:url(#SVGID_2_);}
	.st1{fill:#FFFFFF;}
</style>
<g>
	<defs>
		<rect id="SVGID_1_" width="40" height="40"/>
	</defs>
	<clipPath id="SVGID_2_">
		<use xlink:href="#SVGID_1_"  style="overflow:visible;"/>
	</clipPath>
	<g id="Rank" class="st0">
		<path id="workspace_premium_FILL0_wght400_GRAD0_opsz48" class="st1" d="M16.4,21.8l1.4-4.4l-3.6-2.8h4.4l1.5-4.5l1.4,4.5h4.5
			l-3.6,2.8l1.3,4.4L20,19.1L16.4,21.8z M11,36V24.4C9.9,23.3,9,22,8.5,20.5c-0.5-1.4-0.7-2.8-0.7-4.3C7.7,9.6,12.9,4.1,19.6,4
			c0.1,0,0.3,0,0.4,0c6.6-0.1,12.1,5.2,12.2,11.8c0,0.1,0,0.3,0,0.4c0,1.5-0.3,2.9-0.7,4.3C31,22,30.1,23.3,29,24.4V36l-9-3L11,36z
			 M20,26.1c5.4,0,9.9-4.3,9.9-9.8c0-0.1,0-0.1,0-0.2c0-5.4-4.3-9.9-9.8-9.9c-0.1,0-0.1,0-0.2,0c-5.4,0-9.9,4.3-9.9,9.8
			c0,0.1,0,0.1,0,0.2c0,5.4,4.3,9.9,9.8,9.9C19.9,26.1,19.9,26.1,20,26.1z M13.3,32.8l6.7-2.1l6.7,2.1v-6.5c-1,0.7-2.1,1.3-3.3,1.6
			c-2.2,0.7-4.6,0.7-6.9,0c-1.2-0.3-2.3-0.9-3.3-1.6V32.8z"/>
	</g>
</g>
</svg>
